<svg xmlns="http://www.w3.org/2000/svg" viewBox="0 0 100 120">
  <!-- Guest 1337: Blue hair, tactical vest, cyberpunk look -->

  <!-- Blue spiky hair -->
  <rect x="22" y="-2" width="56" height="18" rx="4" fill="#2266cc"/>
  <rect x="26" y="-6" width="10" height="14" rx="2" fill="#3377dd"/>
  <rect x="40" y="-8" width="10" height="16" rx="2" fill="#3377dd"/>
  <rect x="54" y="-5" width="10" height="13" rx="2" fill="#3377dd"/>
  <rect x="66" y="-2" width="10" height="10" rx="2" fill="#2266cc"/>

  <!-- Head -->
  <rect x="25" y="10" width="50" height="46" rx="5" fill="#5588cc"/>

  <!-- Visor/goggles -->
  <rect x="28" y="22" width="44" height="12" rx="4" fill="#1a1a2e"/>
  <rect x="31" y="24" width="16" height="8" rx="2" fill="#00ddff" opacity="0.8"/>
  <rect x="53" y="24" width="16" height="8" rx="2" fill="#00ddff" opacity="0.8"/>

  <!-- Mouth -->
  <rect x="38" y="44" width="24" height="4" rx="2" fill="#c0c0c0"/>

  <!-- Body - tactical/military vest -->
  <rect x="22" y="56" width="56" height="42" rx="4" fill="#3d5c3d"/>
  <rect x="26" y="59" width="48" height="36" rx="2" fill="#4a6e4a"/>
  <!-- Vest pockets/pouches -->
  <rect x="30" y="62" width="16" height="10" rx="2" fill="#5a3a2a"/>
  <rect x="54" y="62" width="16" height="10" rx="2" fill="#5a3a2a"/>
  <rect x="36" y="78" width="28" height="8" rx="2" fill="#5a3a2a"/>
  <!-- Belt -->
  <rect x="24" y="88" width="52" height="4" fill="#4a3a2a"/>

  <!-- Legs -->
  <rect x="22" y="98" width="24" height="20" rx="3" fill="#2a3a2a"/>
  <rect x="54" y="98" width="24" height="20" rx="3" fill="#2a3a2a"/>

  <!-- Arms -->
  <rect x="10" y="58" width="14" height="28" rx="5" fill="#5588cc"/>
  <rect x="76" y="58" width="14" height="28" rx="5" fill="#5588cc"/>
</svg>
